<?xml version="1.0" encoding="UTF-8"?>
<svg xmlns="http://www.w3.org/2000/svg" xmlns:xlink="http://www.w3.org/1999/xlink" width="20px" height="20px" viewBox="0 0 20 20" version="1.1">
<g id="surface1">
<path style=" stroke:none;fill-rule:nonzero;fill:rgb(0%,0%,0%);fill-opacity:1;" d="M 6.691406 15.523438 C 6.691406 15.601562 6.597656 15.664062 6.480469 15.664062 C 6.347656 15.675781 6.253906 15.613281 6.253906 15.523438 C 6.253906 15.445312 6.347656 15.382812 6.464844 15.382812 C 6.585938 15.371094 6.691406 15.433594 6.691406 15.523438 Z M 5.433594 15.347656 C 5.40625 15.425781 5.488281 15.515625 5.609375 15.539062 C 5.714844 15.578125 5.835938 15.539062 5.859375 15.460938 C 5.882812 15.382812 5.804688 15.292969 5.683594 15.257812 C 5.582031 15.230469 5.464844 15.269531 5.433594 15.347656 Z M 7.21875 15.28125 C 7.101562 15.308594 7.019531 15.382812 7.03125 15.472656 C 7.042969 15.550781 7.148438 15.601562 7.269531 15.574219 C 7.386719 15.546875 7.46875 15.472656 7.457031 15.394531 C 7.445312 15.320312 7.335938 15.269531 7.21875 15.28125 Z M 9.871094 0.3125 C 4.277344 0.3125 0 4.425781 0 9.84375 C 0 14.175781 2.816406 17.882812 6.835938 19.1875 C 7.351562 19.277344 7.53125 18.96875 7.53125 18.714844 C 7.53125 18.472656 7.519531 17.136719 7.519531 16.316406 C 7.519531 16.316406 4.699219 16.902344 4.105469 15.152344 C 4.105469 15.152344 3.644531 14.015625 2.984375 13.722656 C 2.984375 13.722656 2.058594 13.109375 3.046875 13.121094 C 3.046875 13.121094 4.050781 13.199219 4.605469 14.128906 C 5.488281 15.636719 6.96875 15.203125 7.542969 14.945312 C 7.636719 14.320312 7.898438 13.886719 8.191406 13.628906 C 5.933594 13.386719 3.660156 13.070312 3.660156 9.3125 C 3.660156 8.238281 3.96875 7.699219 4.613281 7.011719 C 4.507812 6.757812 4.164062 5.710938 4.71875 4.359375 C 5.558594 4.105469 7.5 5.414062 7.5 5.414062 C 8.304688 5.195312 9.171875 5.082031 10.03125 5.082031 C 10.890625 5.082031 11.757812 5.195312 12.566406 5.414062 C 12.566406 5.414062 14.503906 4.101562 15.347656 4.359375 C 15.898438 5.714844 15.554688 6.757812 15.453125 7.011719 C 16.097656 7.703125 16.492188 8.242188 16.492188 9.3125 C 16.492188 13.082031 14.117188 13.382812 11.863281 13.628906 C 12.234375 13.9375 12.546875 14.523438 12.546875 15.441406 C 12.546875 16.757812 12.535156 18.386719 12.535156 18.707031 C 12.535156 18.960938 12.722656 19.269531 13.234375 19.179688 C 17.265625 17.882812 20 14.175781 20 9.84375 C 20 4.425781 15.464844 0.3125 9.871094 0.3125 Z M 3.917969 13.785156 C 3.867188 13.824219 3.878906 13.914062 3.949219 13.988281 C 4.011719 14.050781 4.105469 14.078125 4.15625 14.027344 C 4.210938 13.988281 4.199219 13.898438 4.128906 13.824219 C 4.066406 13.761719 3.972656 13.734375 3.917969 13.785156 Z M 3.484375 13.46875 C 3.457031 13.519531 3.496094 13.582031 3.578125 13.621094 C 3.640625 13.660156 3.722656 13.648438 3.75 13.59375 C 3.777344 13.542969 3.738281 13.480469 3.65625 13.441406 C 3.578125 13.417969 3.511719 13.429688 3.484375 13.46875 Z M 4.789062 14.859375 C 4.726562 14.910156 4.75 15.027344 4.84375 15.101562 C 4.933594 15.191406 5.050781 15.203125 5.105469 15.140625 C 5.15625 15.089844 5.132812 14.972656 5.050781 14.898438 C 4.964844 14.808594 4.84375 14.796875 4.789062 14.859375 Z M 4.332031 14.285156 C 4.265625 14.324219 4.265625 14.425781 4.332031 14.515625 C 4.394531 14.605469 4.503906 14.644531 4.554688 14.605469 C 4.621094 14.554688 4.621094 14.453125 4.554688 14.363281 C 4.5 14.273438 4.394531 14.234375 4.332031 14.285156 Z M 4.332031 14.285156 "/>
</g>
</svg>
