<?xml version="1.0" encoding="UTF-8"?>
<svg xmlns="http://www.w3.org/2000/svg" xmlns:xlink="http://www.w3.org/1999/xlink" width="20px" height="20px" viewBox="0 0 20 20" version="1.1">
<g id="surface1">
<path style=" stroke:none;fill-rule:nonzero;fill:rgb(0%,0%,0%);fill-opacity:1;" d="M 10 0.3125 C 4.476562 0.3125 0 4.648438 0 10 C 0 15.351562 4.476562 19.6875 10 19.6875 C 15.523438 19.6875 20 15.351562 20 10 C 20 4.648438 15.523438 0.3125 10 0.3125 Z M 14.636719 6.902344 C 14.484375 8.433594 13.832031 12.148438 13.503906 13.867188 C 13.363281 14.589844 13.085938 14.835938 12.820312 14.859375 C 12.238281 14.910156 11.796875 14.488281 11.234375 14.128906 C 10.355469 13.570312 9.855469 13.222656 9.003906 12.675781 C 8.015625 12.046875 8.65625 11.699219 9.21875 11.132812 C 9.367188 10.988281 11.925781 8.730469 11.972656 8.527344 C 11.980469 8.5 11.984375 8.40625 11.925781 8.355469 C 11.867188 8.304688 11.78125 8.324219 11.71875 8.335938 C 11.632812 8.355469 10.226562 9.257812 7.503906 11.039062 C 7.101562 11.304688 6.742188 11.433594 6.417969 11.425781 C 6.0625 11.417969 5.375 11.230469 4.863281 11.070312 C 4.238281 10.871094 3.738281 10.769531 3.78125 10.433594 C 3.804688 10.257812 4.054688 10.078125 4.527344 9.898438 C 7.441406 8.667969 9.386719 7.855469 10.359375 7.464844 C 13.136719 6.34375 13.710938 6.152344 14.089844 6.144531 C 14.171875 6.144531 14.355469 6.164062 14.476562 6.257812 C 14.554688 6.324219 14.605469 6.417969 14.617188 6.519531 C 14.636719 6.644531 14.644531 6.773438 14.636719 6.902344 Z M 14.636719 6.902344 "/>
</g>
</svg>
