<svg width="14" height="25" viewBox="0 0 14 25" fill="none" xmlns="http://www.w3.org/2000/svg">
<path d="M11.7188 -0.000610352H1.5625C1.14827 -6.77368e-05 0.751153 0.164727 0.458245 0.457635C0.165337 0.750543 0.000542615 1.14766 0 1.56189V22.6556C0.000542615 23.0699 0.165337 23.467 0.458245 23.7599C0.751153 24.0528 1.14827 24.2176 1.5625 24.2181H11.7188C12.133 24.2176 12.5301 24.0528 12.823 23.7599C13.1159 23.467 13.2807 23.0699 13.2812 22.6556V1.56189C13.2807 1.14766 13.1159 0.750543 12.823 0.457635C12.5301 0.164727 12.133 -6.77368e-05 11.7188 -0.000610352ZM8.46875 0.78064L8.24902 1.56189H4.99268L4.79736 0.78064H8.46875ZM12.5 22.6556C12.4997 22.8628 12.4173 23.0613 12.2709 23.2078C12.1244 23.3542 11.9259 23.4366 11.7188 23.4369H1.5625C1.35538 23.4366 1.15683 23.3542 1.01037 23.2078C0.863918 23.0613 0.781521 22.8628 0.78125 22.6556V1.56189C0.781521 1.35477 0.863918 1.15622 1.01037 1.00976C1.15683 0.863308 1.35538 0.780911 1.5625 0.78064H3.9917L4.30859 2.04724C4.32972 2.13175 4.37848 2.20677 4.44713 2.26038C4.51579 2.314 4.60039 2.34313 4.6875 2.34314H8.54492C8.63005 2.34314 8.71285 2.31533 8.78071 2.26394C8.84858 2.21256 8.89781 2.14041 8.9209 2.05847L9.28027 0.78064H11.7188C11.9259 0.780911 12.1244 0.863308 12.2709 1.00976C12.4173 1.15622 12.4997 1.35477 12.5 1.56189V22.6556Z" fill="black"/>
<path d="M4.6875 21.8744H1.95312C1.84952 21.8744 1.75017 21.9155 1.67691 21.9888C1.60365 22.0621 1.5625 22.1614 1.5625 22.265C1.5625 22.3686 1.60365 22.468 1.67691 22.5412C1.75017 22.6145 1.84952 22.6556 1.95312 22.6556H4.6875C4.7911 22.6556 4.89046 22.6145 4.96371 22.5412C5.03697 22.468 5.07812 22.3686 5.07812 22.265C5.07812 22.1614 5.03697 22.0621 4.96371 21.9888C4.89046 21.9155 4.7911 21.8744 4.6875 21.8744Z" fill="black"/>
<path d="M6.25 21.8744H5.85938C5.75577 21.8744 5.65642 21.9155 5.58316 21.9888C5.5099 22.0621 5.46875 22.1614 5.46875 22.265C5.46875 22.3686 5.5099 22.468 5.58316 22.5412C5.65642 22.6145 5.75577 22.6556 5.85938 22.6556H6.25C6.3536 22.6556 6.45296 22.6145 6.52621 22.5412C6.59947 22.468 6.64062 22.3686 6.64062 22.265C6.64062 22.1614 6.59947 22.0621 6.52621 21.9888C6.45296 21.9155 6.3536 21.8744 6.25 21.8744Z" fill="black"/>
<path d="M8.01349 9.82062C7.9695 9.79423 7.92074 9.77676 7.87001 9.76921C7.81927 9.76166 7.76754 9.76418 7.71777 9.77662C7.668 9.78906 7.62117 9.81118 7.57996 9.84172C7.53874 9.87226 7.50394 9.91062 7.47755 9.95461L5.13379 13.8608C5.08049 13.9497 5.06466 14.0561 5.08979 14.1566C5.11492 14.2571 5.17894 14.3435 5.26778 14.3968C5.35662 14.4501 5.46299 14.4659 5.5635 14.4408C5.664 14.4157 5.75041 14.3516 5.80372 14.2628L8.14747 10.3566C8.17386 10.3126 8.19134 10.2638 8.19889 10.2131C8.20644 10.1623 8.20392 10.1106 8.19148 10.0608C8.17904 10.0111 8.15691 9.96425 8.12637 9.92303C8.09583 9.88181 8.05748 9.84701 8.01349 9.82062Z" fill="black"/>
<path d="M9.28936 9.91145C9.2573 9.8714 9.21766 9.83805 9.17271 9.81331C9.12776 9.78857 9.07838 9.77293 9.02739 9.76727C8.9244 9.75585 8.82109 9.78582 8.74019 9.85057C8.65929 9.91532 8.60743 10.0096 8.59601 10.1125C8.58459 10.2155 8.61455 10.3188 8.6793 10.3997L10.0465 12.1087L8.6793 13.8177C8.61455 13.8986 8.58459 14.0019 8.59601 14.1049C8.60743 14.2079 8.65929 14.3021 8.74019 14.3669C8.82109 14.4316 8.9244 14.4616 9.02739 14.4502C9.13037 14.4387 9.22461 14.3869 9.28936 14.306L10.8519 12.3529C10.9073 12.2836 10.9376 12.1975 10.9376 12.1087C10.9376 12.02 10.9073 11.9339 10.8519 11.8646L9.28936 9.91145Z" fill="black"/>
<path d="M3.99182 14.306C4.05657 14.3869 4.15081 14.4387 4.2538 14.4502C4.35679 14.4616 4.46009 14.4316 4.54099 14.3669C4.62189 14.3021 4.67375 14.2079 4.68517 14.1049C4.69659 14.0019 4.66663 13.8986 4.60188 13.8177L3.23469 12.1087L4.60188 10.3997C4.63394 10.3597 4.6578 10.3137 4.67209 10.2644C4.68638 10.2151 4.69083 10.1635 4.68517 10.1125C4.67952 10.0615 4.66388 10.0122 4.63914 9.96721C4.6144 9.92226 4.58105 9.88263 4.54099 9.85056C4.50093 9.8185 4.45495 9.79465 4.40568 9.78036C4.3564 9.76606 4.30479 9.76162 4.2538 9.76727C4.2028 9.77293 4.15342 9.78857 4.10847 9.81331C4.06352 9.83805 4.02388 9.8714 3.99182 9.91145L2.42932 11.8646C2.37385 11.9339 2.34363 12.02 2.34363 12.1087C2.34363 12.1975 2.37385 12.2836 2.42932 12.3529L3.99182 14.306Z" fill="black"/>
</svg>
