<svg width="25" height="24" viewBox="0 0 25 24" fill="none" xmlns="http://www.w3.org/2000/svg">
<path d="M0 -0.000610352V20.5198H8.02402V21.9871H6.55742V23.452H18.4425V21.9871H16.9759V20.5198H25V-0.000610352H0ZM15.511 21.9871H9.48896V20.5198H15.511V21.9871H15.511ZM23.5351 19.055H1.46489V16.1216H23.5351V19.055H23.5351ZM23.5351 14.6567H1.46489V1.46433H23.5351V14.6567H23.5351Z" fill="black"/>
<path d="M9.95816 5.41279L8.92232 4.37695L5.23877 8.0605L8.92232 11.744L9.95816 10.7082L7.31045 8.0605L9.95816 5.41279Z" fill="black"/>
<path d="M16.0777 4.37695L15.0419 5.41279L17.6896 8.0605L15.0419 10.7082L16.0777 11.744L19.7612 8.0605L16.0777 4.37695Z" fill="black"/>
<path d="M12.6319 3.64344L10.9313 12.1924L12.3681 12.4783L14.0687 3.92925L12.6319 3.64344Z" fill="black"/>
</svg>
