<?xml version="1.0" encoding="UTF-8"?>
<svg xmlns="http://www.w3.org/2000/svg" xmlns:xlink="http://www.w3.org/1999/xlink" width="30px" height="30px" viewBox="0 0 30 30" version="1.1">
<g id="surface1">
<path style=" stroke:none;fill-rule:nonzero;fill:rgb(0%,0%,0%);fill-opacity:1;" d="M 10.035156 23.285156 C 10.035156 23.402344 9.894531 23.496094 9.722656 23.496094 C 9.519531 23.511719 9.378906 23.417969 9.378906 23.285156 C 9.378906 23.167969 9.519531 23.074219 9.699219 23.074219 C 9.878906 23.058594 10.035156 23.152344 10.035156 23.285156 Z M 8.152344 23.019531 C 8.109375 23.136719 8.230469 23.273438 8.414062 23.308594 C 8.574219 23.367188 8.753906 23.308594 8.789062 23.191406 C 8.824219 23.074219 8.707031 22.941406 8.527344 22.886719 C 8.371094 22.847656 8.199219 22.902344 8.152344 23.019531 Z M 10.828125 22.921875 C 10.652344 22.964844 10.527344 23.074219 10.546875 23.207031 C 10.566406 23.324219 10.722656 23.402344 10.902344 23.363281 C 11.082031 23.320312 11.203125 23.207031 11.183594 23.089844 C 11.167969 22.980469 11.003906 22.902344 10.828125 22.921875 Z M 14.808594 0.46875 C 6.417969 0.46875 0 6.636719 0 14.765625 C 0 21.261719 4.222656 26.824219 10.253906 28.78125 C 11.027344 28.917969 11.296875 28.453125 11.296875 28.074219 C 11.296875 27.707031 11.277344 25.707031 11.277344 24.472656 C 11.277344 24.472656 7.050781 25.355469 6.160156 22.730469 C 6.160156 22.730469 5.464844 21.023438 4.476562 20.582031 C 4.476562 20.582031 3.089844 19.664062 4.570312 19.683594 C 4.570312 19.683594 6.074219 19.800781 6.910156 21.191406 C 8.230469 23.457031 10.453125 22.804688 11.316406 22.417969 C 11.457031 21.480469 11.847656 20.832031 12.285156 20.441406 C 8.902344 20.082031 5.488281 19.605469 5.488281 13.96875 C 5.488281 12.355469 5.953125 11.550781 6.917969 10.519531 C 6.761719 10.136719 6.246094 8.566406 7.078125 6.539062 C 8.339844 6.160156 11.25 8.121094 11.25 8.121094 C 12.457031 7.792969 13.757812 7.621094 15.046875 7.621094 C 16.335938 7.621094 17.636719 7.792969 18.847656 8.121094 C 18.847656 8.121094 21.753906 6.152344 23.019531 6.539062 C 23.847656 8.574219 23.332031 10.136719 23.179688 10.519531 C 24.144531 11.554688 24.738281 12.363281 24.738281 13.96875 C 24.738281 19.621094 21.175781 20.074219 17.792969 20.441406 C 18.351562 20.90625 18.820312 21.785156 18.820312 23.160156 C 18.820312 25.136719 18.800781 27.582031 18.800781 28.058594 C 18.800781 28.441406 19.082031 28.902344 19.851562 28.769531 C 25.898438 26.824219 30 21.261719 30 14.765625 C 30 6.636719 23.199219 0.46875 14.808594 0.46875 Z M 5.878906 20.675781 C 5.800781 20.738281 5.816406 20.871094 5.925781 20.980469 C 6.019531 21.074219 6.160156 21.117188 6.234375 21.042969 C 6.316406 20.980469 6.300781 20.847656 6.191406 20.738281 C 6.097656 20.644531 5.957031 20.601562 5.878906 20.675781 Z M 5.226562 20.203125 C 5.183594 20.277344 5.246094 20.371094 5.367188 20.433594 C 5.460938 20.488281 5.582031 20.472656 5.625 20.390625 C 5.667969 20.316406 5.605469 20.222656 5.484375 20.160156 C 5.367188 20.128906 5.269531 20.144531 5.226562 20.203125 Z M 7.183594 22.289062 C 7.089844 22.363281 7.125 22.542969 7.265625 22.652344 C 7.402344 22.785156 7.574219 22.804688 7.660156 22.710938 C 7.734375 22.636719 7.699219 22.457031 7.574219 22.347656 C 7.449219 22.214844 7.265625 22.195312 7.183594 22.289062 Z M 6.496094 21.425781 C 6.398438 21.488281 6.398438 21.636719 6.496094 21.773438 C 6.589844 21.910156 6.753906 21.964844 6.832031 21.910156 C 6.933594 21.832031 6.933594 21.679688 6.832031 21.542969 C 6.75 21.410156 6.589844 21.351562 6.496094 21.425781 Z M 6.496094 21.425781 "/>
</g>
</svg>
