<?xml version="1.0" encoding="UTF-8"?>
<svg xmlns="http://www.w3.org/2000/svg" xmlns:xlink="http://www.w3.org/1999/xlink" width="30px" height="30px" viewBox="0 0 30 30" version="1.1">
<g id="surface1">
<path style=" stroke:none;fill-rule:evenodd;fill:rgb(0%,0%,0%);fill-opacity:1;" d="M 23.730469 21.183594 C 23.371094 22.207031 21.933594 23.050781 20.785156 23.300781 C 20.003906 23.464844 18.980469 23.597656 15.53125 22.167969 C 11.660156 20.566406 6.285156 14.851562 6.285156 11.050781 C 6.285156 9.113281 7.402344 6.859375 9.351562 6.859375 C 10.292969 6.859375 10.5 6.878906 10.808594 7.621094 C 11.167969 8.492188 12.050781 10.644531 12.15625 10.863281 C 12.589844 11.769531 11.714844 12.300781 11.082031 13.085938 C 10.878906 13.324219 10.648438 13.582031 10.90625 14.023438 C 11.160156 14.453125 12.042969 15.890625 13.339844 17.046875 C 15.011719 18.535156 16.371094 19.011719 16.855469 19.214844 C 17.21875 19.363281 17.648438 19.332031 17.914062 19.046875 C 18.246094 18.6875 18.664062 18.085938 19.085938 17.496094 C 19.382812 17.070312 19.765625 17.019531 20.160156 17.167969 C 20.429688 17.261719 23.84375 18.847656 23.988281 19.101562 C 24.09375 19.285156 24.09375 20.160156 23.730469 21.183594 M 15.003906 0 L 14.996094 0 C 6.726562 0 0 6.726562 0 15 C 0 18.28125 1.058594 21.324219 2.855469 23.792969 L 0.988281 29.367188 L 6.75 27.523438 C 9.121094 29.09375 11.953125 30 15.003906 30 C 23.273438 30 30 23.273438 30 15 C 30 6.726562 23.273438 0 15.003906 0 "/>
</g>
</svg>
